<svg xmlns="http://www.w3.org/2000/svg" width="414.6" height="401" viewBox="0 0 414.6 401">
  <g id="Group_119" data-name="Group 119" transform="translate(-575.4 -7147)">
    <circle id="Ellipse_27" data-name="Ellipse 27" cx="200.5" cy="200.5" r="200.5" transform="translate(589 7147)" fill="#ef8354" opacity="0.1"/>
    <g id="Group_106" data-name="Group 106" transform="translate(-95.59 -127.998)">
      <path id="Path_699" data-name="Path 699" d="M2422.976,794c3.061,10.791-4.416,21.914-12.653,24.251s-14.116-5-17.177-15.791,1.134-21.437,9.371-23.774S2419.913,783.2,2422.976,794Z" transform="translate(-1465.396 6550.652)" fill="#f09959"/>
      <path id="Path_708" data-name="Path 708" d="M2482.338,885.4c-5.987-14.181-7.458-30.11-7.458-30.11l-15.683,4.632s8.911,19.96.358,27.086a80.833,80.833,0,0,0-6.115,5.584A38.635,38.635,0,0,1,2482.338,885.4Z" transform="translate(-1508.514 6496.441)" fill="#f09959"/>
      <path id="Path_709" data-name="Path 709" d="M2489.048,861.036c-.929-.827-2.077-1.856-3.313-2.936l-12.8,3.784-.026.071c.3.706,3.558,8.3,3.995,15.619,3.81-2.31,7.985-6.082,12.751-12.669C2489.413,863.444,2489.208,862.142,2489.048,861.036Z" transform="translate(-1522.211 6494.465)" fill="#e38540"/>
      <path id="Path_716" data-name="Path 716" d="M2457.7,913.19l1.606,12.941s-14.143.842-21.182,4.8-17.425,15.414-17.425,15.414l8.488-14.61,1.222-9.347Z" transform="translate(-1485.483 6455.711)" fill="#f2e5de"/>
      <path id="Path_718" data-name="Path 718" d="M2380.541,731.678c-19.869.949-16.751,30.84-16.751,30.84s5.158,1.592,15.971-.19c-.83-3.208-.475-11.4-.475-11.4a74.821,74.821,0,0,0,2.85,10.693c2.287,1.047,4.874.119,9.268-.946,2.258,9.489,8.637,13.51,13,14.883,4.828,1.518,9.934,3.327,15.637.477s2.567-32-.464-37.859c-4.543-8.8-12.1-16.671-25.167-12.513A96.977,96.977,0,0,0,2380.541,731.678Z" transform="translate(-1445.323 6588.437)" fill="#303c60"/>
      <path id="Path_720" data-name="Path 720" d="M2645.913,944.874a.723.723,0,0,1-.634-1.07c6.82-12.484,1.257-27.608-1.545-31.706-.3-.433-.593-.89-.889-1.34-2.756-4.3-6.184-9.649-24.477-12.941-4.4-.795-7.97-3.413-11.746-6.186-7.8-5.726-16.642-12.215-35.851-3.375a.723.723,0,0,1-.593-1.314c19.98-9.193,29.188-2.438,37.31,3.526,3.639,2.669,7.073,5.192,11.15,5.931,18.91,3.4,22.537,9.05,25.433,13.587.3.454.57.89.855,1.3,2.936,4.294,8.774,20.138,1.621,33.212A.725.725,0,0,1,2645.913,944.874Z" transform="translate(-1590.375 6477.348)" fill="#303c60"/>
      <path id="Path_721" data-name="Path 721" d="M2472.23,842.237a28.758,28.758,0,0,1-4.219-.338c-6.951-1.044-16.277-4.994-17.007-27.175a.723.723,0,1,1,1.444-.048c.3,9.143,2.115,15.909,5.391,20.108,2.488,3.188,5.789,5,10.379,5.685,6.435.964,10.7-.225,12.674-3.532a.725.725,0,1,1,1.245.741C2480.326,840.713,2477,842.237,2472.23,842.237Z" transform="translate(-1506.799 6525.532)" fill="#303c60"/>
      <path id="Path_719" data-name="Path 719" d="M2537.22,863.319l8.122,11.862s-9,22.5,17.181,32.684c20.505,7.983,18.09,22.045,8.825,36.177s5.543,26.514,5.543,26.514,2.259-15.666,22.185-18.622c27.165-4.033,34.858-40.5,14.565-58.741-16.79-15.094-21.9-2.595-33.266-16.138s-32.822-4.395-32.822-4.395l-7.864-11.47Z" transform="translate(-1567.451 6492.292)" fill="#303c60"/>
      <g id="Group_105" data-name="Group 105" transform="translate(670.99 7381.42)">
        <path id="Path_698" data-name="Path 698" d="M1611.33,1398.717h5.338l20.766-158.737h-11.743Z" transform="translate(-1587.112 -1155.594)" fill="#2e5b9a"/>
        <rect id="Rectangle_81" data-name="Rectangle 81" width="230.87" height="8.603" rx="4.301" transform="translate(0 78.527)" fill="#2e5b9a"/>
        <path id="Path_700" data-name="Path 700" d="M2317.74,1536.71s21.111,32.788,23.964,34.212,9.979,1.779,7.3,7.117-3.742,26.375-6.227,27.441-23.877,3.559-20.671,0,5.18-1.779,6.8-8.2,3.893-18.53.862-21.027-21.57-24.93-21.57-24.93Z" transform="translate(-2077.334 -1364.332)" fill="#f09959"/>
        <path id="Path_701" data-name="Path 701" d="M1880.173,1584.19s-25.66,42.3-30.413,46.1-20.434,9.489-7.6,10.453,19.008-4.276,27.086-6.651,18.059-3.8,14.257-9.982-2.223-19.663,5.973-28.216S1880.173,1584.19,1880.173,1584.19Z" transform="translate(-1746.015 -1397.732)" fill="#f09959"/>
        <path id="Path_702" data-name="Path 702" d="M2087.173,1253.385s-63.525-1.66-88.71,19.008c-14.731,22.335-50.369,88.235-53.142,95.485,1.9,1.9,12.594,5.338,17.348,4.858,14.017-16.716,32.548-31.167,39.917-44.28,9.08-16.155,11.879-24.236,26.611-25.662s48-6.177,57.977-6.177S2087.173,1253.385,2087.173,1253.385Z" transform="translate(-1822.061 -1165)" fill="#6791c9"/>
        <path id="Path_703" data-name="Path 703" d="M2545.947,1538.945h-3.33l-23.877-99.625h7.324Z" transform="translate(-2225.44 -1295.821)" fill="#2e5b9a"/>
        <path id="Path_704" data-name="Path 704" d="M2274.11,1530.588h3.33l27.4-103.148h-7.325Z" transform="translate(-2053.353 -1287.464)" fill="#2e5b9a"/>
        <path id="Path_705" data-name="Path 705" d="M2249.421,1238.79l-36.931,6.376s-49.079.45-71.513,4.629c-20.411,3.8-23.427,26.984,0,58.924,13.3,18.143,24.551,32.62,47.55,48.929,5.85-4.294,8.09-5.931,9.706-16.256-1.664-2.283-5.972-16.568-7.31-19.364-12.724-26.593-29.7-36.264-29.949-38.882,2.851-4.632,75.525,24.15,89.972,7.221C2264.751,1274.2,2249.421,1238.79,2249.421,1238.79Z" transform="translate(-1948.12 -1154.756)" fill="#75a1de"/>
        <path id="Path_706" data-name="Path 706" d="M2439.1,955.831a38.638,38.638,0,0,0-28.9,7.191c-8.095,8.252-17.255,21.861-16.694,44.312.711,28.512-4.414,30.342.933,38.182,22.3,9.193,60.428,48.765,51.45,6.358-6.5-30.709,14.26-53.6-2.489-87.662C2442.04,961.439,2440.334,958.749,2439.1,955.831Z" transform="translate(-2136.268 -955.41)" fill="#ef8354"/>
        <path id="Path_707" data-name="Path 707" d="M2393.506,1034.953c-.432,14.865-2.533,19.242-.927,23.9,9.089.928,25.716,4.564,29.869,10.379,4.745,6.652,9.508,7.6,7.29,2.692s-8.08-11.879.949-35.8,13.306-40.077,4.449-56.71Z" transform="translate(-2136.272 -972.299)" fill="#e35619"/>
        <path id="Path_710" data-name="Path 710" d="M2287.746,970.8c-16.152,5.635-14.361,22.661-29.224,47.743-7.709,12.988-14.827,12.793-14.827,12.793a343.9,343.9,0,0,1-39.861-2.524c-13.667-1.669-14.53,2.4-5.041,5.794,19.165,6.853,39.057,14.234,55.094,12.455s43.468-42.7,44.881-53.353C2300.726,978.985,2295.881,967.957,2287.746,970.8Z" transform="translate(-1995.935 -965.92)" fill="#f09959"/>
        <path id="Path_711" data-name="Path 711" d="M2350.98,1198.022c-1.005,0-2.031,0-3.087-.039a153.22,153.22,0,0,1-29.322-3.609c-8.406-1.708-13.048-2.648-18.426-.074a4.151,4.151,0,1,1-3.579-7.491c7.9-3.774,14.51-2.431,23.658-.571a146.128,146.128,0,0,0,27.874,3.445c13.914.347,22.4-1.717,26.688-6.485,3.833-4.249,4.953-11.387,3.53-22.462-.487-3.793-.976-6.945-1.406-9.726-1.213-7.85-2.016-13.048-1.022-21.054.921-7.444,3.385-17.356,9.1-36.584a4.153,4.153,0,0,1,7.959,2.372c-10.64,35.828-10.1,39.315-7.83,54,.439,2.832.935,6.041,1.436,9.937,1.756,13.658-.021,22.9-5.6,29.082C2375.219,1195.125,2365.9,1198.022,2350.98,1198.022Z" transform="translate(-2067.486 -1050.372)" fill="#2e5b9a"/>
        <path id="Path_712" data-name="Path 712" d="M1881.932,1704.4c-17.028,8.327-26.194,13.1-31.653,12.645-1.286-.107-2.354-.237-3.262-.38-6.073,3.591-15.767,7.832-4.86,8.638,12.832.952,19.008-4.276,27.086-6.651s18.059-3.8,14.257-9.982A12.915,12.915,0,0,1,1881.932,1704.4Z" transform="translate(-1746.015 -1482.295)" fill="#d54a41"/>
        <path id="Path_713" data-name="Path 713" d="M2375.778,1654.431c-.419,13.481-2.272,26.839-10.516,29.357a13.845,13.845,0,0,1-5.93.531c-1.3,1.6-2.88,1.622-5.006,3.979-3.207,3.559,18.177,1.071,20.671,0s3.559-22.1,6.228-27.441C2383.422,1656.47,2379,1655.448,2375.778,1654.431Z" transform="translate(-2109.551 -1447.143)" fill="#d54a41"/>
        <path id="Path_714" data-name="Path 714" d="M2016.235,1092.886h-54.091a4.15,4.15,0,0,1-3.766-2.4l-21.858-47.045a4.151,4.151,0,0,1,7.53-3.5l20.757,44.644h51.444a4.151,4.151,0,0,1,0,8.3Z" transform="translate(-1815.599 -1013.182)" fill="#75a1de"/>
        <path id="Path_715" data-name="Path 715" d="M2130.313,1155.329c-10.932-.157-21.772-6.672-27.157-5.723s-22.968,13.148-20.758,13.623,16.155-6.749,16.631-6.859,3.487,5,10.929,6.883.054-5.581,23.13,1.391C2148.1,1169.175,2130.313,1155.329,2130.313,1155.329Z" transform="translate(-1918.356 -1091.951)" fill="#f09959"/>
        <path id="Path_717" data-name="Path 717" d="M2329.711,966c-10.5-1.969-15.364,7.446-22.175,22.81s-18.439,34.028-20.758,36.433-38.968,0-38.968,0-1.108,10.614,0,11.883,7.447,1.106,7.447,1.106,2.536,2.026,4.91,3.626,22.493,4.612,31.839,4.137,17.9-1.266,19.166-2.693,26.792-40.712,28.362-54.809S2335.073,967,2329.711,966Z" transform="translate(-2034.505 -962.674)" fill="#f2e5de"/>
        <path id="Path_722" data-name="Path 722" d="M2160.255,1398.717h-5.337L2134.15,1239.98H2145.9Z" transform="translate(-1954.896 -1155.594)" fill="#2e5b9a"/>
      </g>
    </g>
    <g id="Group_104" data-name="Group 104" transform="translate(607.087 7239.2)">
      <path id="Path_723" data-name="Path 723" d="M2853.273,1323.43c5.032,4.6,2.844,9.191-.876,17.727s-4.377,40.047-4.377,40.047l3.071-.438s-.437-32.388,3.717-41.141,5.909-13.131,9.629-10.286S2853.273,1323.43,2853.273,1323.43Z" transform="translate(-2818.111 -1303.275)" fill="#74b570"/>
      <path id="Path_724" data-name="Path 724" d="M2862,1212.919c.611-2.723,4.24-5.671,9.1-8.17-.723,4.016-3.035,10.584-.647,11.932,3.232,1.816.323-7.354,1.562-12.394a60,60,0,0,1,15.092-4.95.15.15,0,0,1-.02.055c-2.845,7.222-6.565,10.067-5.034,11.161,1.153.824,4.906-7.518,9.857-11.8,3.717-.2,6.869.306,8.727,1.778,2.878,2.279,4.81,4.3,1.915,11.238a12.991,12.991,0,0,1-6.285,2.279c-6.565.656-9.628.876-5.033,3.071,2.25,1.072,6.021-.061,9.081-.75-.992,1.828-2.212,3.9-3.694,6.254a23.2,23.2,0,0,1-3.071,3.914,9.707,9.707,0,0,1-4.937-.008c-3.07-1.314-10.942-5.472-12.912-3.717-1.927,1.715,14.592,2.8,13.446,7.154-8.006,4.612-17.168,2.424-18.787-1.818C2868.185,1222.455,2860.152,1221.117,2862,1212.919Z" transform="translate(-2829.6 -1198.713)" fill="#9cd499"/>
      <path id="Path_725" data-name="Path 725" d="M2837.328,1464.628c-8.755-6.566-17.727-.438-22.322,6.565s-1.313,22.759-1.313,22.759,1.749,0,1.749-.656-4.814-18.6,6.567-26.7c7.119-5.065,12.254-2.626,12.911-.218s-2.844,6.788-2.844,6.788Z" transform="translate(-2788.381 -1419.305)" fill="#74b570"/>
      <path id="Path_726" data-name="Path 726" d="M2839.242,1395.65c8.752,0,11.6,13.575,9.19,21.447s-5.691,22.54-5.691,22.54l-2.187-2.188s8.316-20.571,6.346-29.762-6.788-10.725-7.658-10.725S2839.242,1395.65,2839.242,1395.65Z" transform="translate(-2810.427 -1363.823)" fill="#9cd499"/>
      <path id="Path_727" data-name="Path 727" d="M2875.236,1518.669a6.359,6.359,0,0,1,2.3-1.939,17.663,17.663,0,0,1-.455,1.876c-1.1,3.589-2.376,8.587-3.443,12.964-.1-.561-.246-1.425-.485-2.757-.055-.324-.1-.658-.128-1.02A84.414,84.414,0,0,0,2875.236,1518.669Z" transform="translate(-2839.079 -1465.335)" fill="#74b570"/>
      <path id="Path_728" data-name="Path 728" d="M2878.012,1465.126c16.631-7,7.869-16.614,22.531-10.267a10.945,10.945,0,0,1,3.555,3.129,10.916,10.916,0,0,1-4.644.373c-4.378-.656-2.846,2.844,4.376,3.717a16.216,16.216,0,0,1,3.384.715c3.441,6.608,4.99,15.3-2.29,18.325a16.487,16.487,0,0,1-5.182,1.063c-2.248-1.778.548-12.121-2.909-10.692-3.326,1.369,1.043,8.858.442,10.744a48.033,48.033,0,0,1-10.389-1.454,5.171,5.171,0,0,1-2.748-3.162c-1.094-4.594,6.126-7.434,6.346-11.379.2-3.621-2.647,7.968-10.193,9.672C2873.46,1472.724,2870.237,1468.4,2878.012,1465.126Z" transform="translate(-2839.461 -1411.726)" fill="#9cd499"/>
      <path id="Path_729" data-name="Path 729" d="M2689.65,1370.3c1.75-3.717-2.846-4.595-2.627-1.75.2,2.521.216,8.649-2.37,10.317a40.736,40.736,0,0,1-15.111-5.01,1.848,1.848,0,0,1,.193-1.141c1.97-3.94,14.662-7.222,10.723-8.535-3.137-1.046-8.633,5.126-13.063,8.243-2.661-2.019-4.444-4.425-4.444-7.111,0-3.637,4.418-7.757,10.131-9.719,2.571.26,4.958,1.666,8.689,3.78,5.511,3.123,4.236-1.926-.969-4.922a15.668,15.668,0,0,1,12.282,6.746s-.314,1.962,1.765,5c5.666,8.281-.874,13.116-8.692,12.8C2686.6,1376.8,2688.44,1372.87,2689.65,1370.3Z" transform="translate(-2662.951 -1329.281)" fill="#9cd499"/>
      <path id="Path_730" data-name="Path 730" d="M2952.409,1476.57c4.279,3.307,9.033,7.174,14.868,9.8s4.669,11.185,4.669,11.185.876-7.392-3.989-9.922-8.073-5.543-11.768-6.128a53.915,53.915,0,0,1-5.739-1.167s1.166-2.334.484-3.209S2952.409,1476.57,2952.409,1476.57Z" transform="translate(-2903.988 -1431.62)" fill="#74b570"/>
      <path id="Path_731" data-name="Path 731" d="M2930.117,1236.56c-15.66,4.183-27.138,14.2-29.277,16.633s-2.14,3.113-2.14,3.113l1.653,3.113.778-.388s-1.264-2.627,2.042-6.031c5.7-5.871,12.647-10.5,17.412-12.547S2930.117,1236.56,2930.117,1236.56Z" transform="translate(-2860.601 -1230.444)" fill="#74b570"/>
      <path id="Path_732" data-name="Path 732" d="M7.7,0h5.98a7.7,7.7,0,0,1,7.7,7.7V21.45H0V7.7A7.7,7.7,0,0,1,7.7,0Z" transform="translate(39.968 92.8) rotate(180)" fill="#75a1de"/>
      <rect id="Rectangle_82" data-name="Rectangle 82" width="21.389" height="1.506" transform="translate(18.587 73.807)" fill="#fff"/>
      <rect id="Rectangle_83" data-name="Rectangle 83" width="21.389" height="0.886" transform="translate(18.587 76.553)" fill="#fff"/>
    </g>
  </g>
</svg>
